<svg id="visual" viewBox="0 0 900 450" width="900" height="450" xmlns="http://www.w3.org/2000/svg" xmlns:xlink="http://www.w3.org/1999/xlink" version="1.1"><rect x="0" y="0" width="900" height="450" fill="#ffffff"></rect><path d="M0 202L25 200.5C50 199 100 196 150 192.5C200 189 250 185 300 178.7C350 172.3 400 163.7 450 171C500 178.3 550 201.7 600 213C650 224.3 700 223.7 750 211.5C800 199.3 850 175.7 875 163.8L900 152L900 0L875 0C850 0 800 0 750 0C700 0 650 0 600 0C550 0 500 0 450 0C400 0 350 0 300 0C250 0 200 0 150 0C100 0 50 0 25 0L0 0Z" fill="#00a2ff"></path><path d="M0 124L25 128.5C50 133 100 142 150 145.7C200 149.3 250 147.7 300 137.7C350 127.7 400 109.3 450 107.5C500 105.7 550 120.3 600 123.5C650 126.7 700 118.3 750 116.3C800 114.3 850 118.7 875 120.8L900 123L900 0L875 0C850 0 800 0 750 0C700 0 650 0 600 0C550 0 500 0 450 0C400 0 350 0 300 0C250 0 200 0 150 0C100 0 50 0 25 0L0 0Z" fill="#0f69b1"></path><path d="M0 95L25 86C50 77 100 59 150 50C200 41 250 41 300 45.7C350 50.3 400 59.7 450 68.2C500 76.7 550 84.3 600 82.8C650 81.3 700 70.7 750 65.2C800 59.7 850 59.3 875 59.2L900 59L900 0L875 0C850 0 800 0 750 0C700 0 650 0 600 0C550 0 500 0 450 0C400 0 350 0 300 0C250 0 200 0 150 0C100 0 50 0 25 0L0 0Z" fill="#003668"></path></svg>