<svg id="visual" viewBox="0 0 900 600" width="900" height="600" xmlns="http://www.w3.org/2000/svg" xmlns:xlink="http://www.w3.org/1999/xlink" version="1.1"><rect x="0" y="0" width="900" height="600" fill="#FFFFFF"></rect><path d="M506 600L507 588.8C508 577.7 510 555.3 510.8 533.2C511.7 511 511.3 489 534 466.8C556.7 444.7 602.3 422.3 588.8 400C575.3 377.7 502.7 355.3 472.2 333.2C441.7 311 453.3 289 459.7 266.8C466 244.7 467 222.3 444.3 200C421.7 177.7 375.3 155.3 377.5 133.2C379.7 111 430.3 89 458 66.8C485.7 44.7 490.3 22.3 492.7 11.2L495 0L900 0L900 11.2C900 22.3 900 44.7 900 66.8C900 89 900 111 900 133.2C900 155.3 900 177.7 900 200C900 222.3 900 244.7 900 266.8C900 289 900 311 900 333.2C900 355.3 900 377.7 900 400C900 422.3 900 444.7 900 466.8C900 489 900 511 900 533.2C900 555.3 900 577.7 900 588.8L900 600Z" fill="#fa7268"></path><path d="M520 600L508.3 588.8C496.7 577.7 473.3 555.3 512.8 533.2C552.3 511 654.7 489 688.2 466.8C721.7 444.7 686.3 422.3 679.7 400C673 377.7 695 355.3 687.2 333.2C679.3 311 641.7 289 612.8 266.8C584 244.7 564 222.3 595 200C626 177.7 708 155.3 729.2 133.2C750.3 111 710.7 89 710 66.8C709.3 44.7 747.7 22.3 766.8 11.2L786 0L900 0L900 11.2C900 22.3 900 44.7 900 66.8C900 89 900 111 900 133.2C900 155.3 900 177.7 900 200C900 222.3 900 244.7 900 266.8C900 289 900 311 900 333.2C900 355.3 900 377.7 900 400C900 422.3 900 444.7 900 466.8C900 489 900 511 900 533.2C900 555.3 900 577.7 900 588.8L900 600Z" fill="#e34c67"></path><path d="M770 600L762.2 588.8C754.3 577.7 738.7 555.3 738.3 533.2C738 511 753 489 750 466.8C747 444.7 726 422.3 712.8 400C699.7 377.7 694.3 355.3 721.8 333.2C749.3 311 809.7 289 814.8 266.8C820 244.7 770 222.3 746.8 200C723.7 177.7 727.3 155.3 717.7 133.2C708 111 685 89 669 66.8C653 44.7 644 22.3 639.5 11.2L635 0L900 0L900 11.2C900 22.3 900 44.7 900 66.8C900 89 900 111 900 133.2C900 155.3 900 177.7 900 200C900 222.3 900 244.7 900 266.8C900 289 900 311 900 333.2C900 355.3 900 377.7 900 400C900 422.3 900 444.7 900 466.8C900 489 900 511 900 533.2C900 555.3 900 577.7 900 588.8L900 600Z" fill="#c62368"></path></svg>