<svg id="visual" viewBox="0 0 900 600" width="900" height="600" xmlns="http://www.w3.org/2000/svg" xmlns:xlink="http://www.w3.org/1999/xlink" version="1.1"><rect x="0" y="0" width="900" height="600" fill="#ffffff"></rect><path d="M353 0L378.8 16.7C404.7 33.3 456.3 66.7 456.2 100C456 133.3 404 166.7 396.3 200C388.7 233.3 425.3 266.7 418.8 300C412.3 333.3 362.7 366.7 357.7 400C352.7 433.3 392.3 466.7 416.2 500C440 533.3 448 566.7 452 583.3L456 600L0 600L0 583.3C0 566.7 0 533.3 0 500C0 466.7 0 433.3 0 400C0 366.7 0 333.3 0 300C0 266.7 0 233.3 0 200C0 166.7 0 133.3 0 100C0 66.7 0 33.3 0 16.7L0 0Z" fill="#fa7268"></path><path d="M255 0L251.3 16.7C247.7 33.3 240.3 66.7 230.2 100C220 133.3 207 166.7 223.8 200C240.7 233.3 287.3 266.7 295.8 300C304.3 333.3 274.7 366.7 257.5 400C240.3 433.3 235.7 466.7 233.7 500C231.7 533.3 232.3 566.7 232.7 583.3L233 600L0 600L0 583.3C0 566.7 0 533.3 0 500C0 466.7 0 433.3 0 400C0 366.7 0 333.3 0 300C0 266.7 0 233.3 0 200C0 166.7 0 133.3 0 100C0 66.7 0 33.3 0 16.7L0 0Z" fill="#e34c67"></path><path d="M148 0L141 16.7C134 33.3 120 66.7 113.3 100C106.7 133.3 107.3 166.7 124.7 200C142 233.3 176 266.7 192.2 300C208.3 333.3 206.7 366.7 201.7 400C196.7 433.3 188.3 466.7 170.5 500C152.7 533.3 125.3 566.7 111.7 583.3L98 600L0 600L0 583.3C0 566.7 0 533.3 0 500C0 466.7 0 433.3 0 400C0 366.7 0 333.3 0 300C0 266.7 0 233.3 0 200C0 166.7 0 133.3 0 100C0 66.7 0 33.3 0 16.7L0 0Z" fill="#c62368"></path></svg>